<?xml version="1.0" encoding="UTF-8" standalone="no"?><svg xmlns="http://www.w3.org/2000/svg" xmlns:xlink="http://www.w3.org/1999/xlink" contentStyleType="text/css" height="704px" preserveAspectRatio="none" style="width:706px;height:704px;background:#FFFFFF;" version="1.1" viewBox="0 0 706 704" width="706px" zoomAndPan="magnify"><defs/><g><rect fill="none" height="25.6406" id="_title" style="stroke:none;stroke-width:1.0;" width="204" x="244" y="5"/><text fill="#000000" font-family="sans-serif" font-size="14" font-weight="bold" lengthAdjust="spacing" textLength="194" x="249" y="22.6738">Core domain for application</text><!--MD5=[7c76a28c8ae77dc3ed0e3149d3a8641e]
cluster br.edu.ifrs.resource_sharing.core.entities--><g id="cluster_br.edu.ifrs.resource_sharing.core.entities"><path d="M8.5,42.6406 L304.5,42.6406 A3.75,3.75 0 0 1 307,45.1406 L314,64.2813 L696.5,64.2813 A2.5,2.5 0 0 1 699,66.7813 L699,695.1406 A2.5,2.5 0 0 1 696.5,697.6406 L8.5,697.6406 A2.5,2.5 0 0 1 6,695.1406 L6,45.1406 A2.5,2.5 0 0 1 8.5,42.6406 " fill="none" style="stroke:#000000;stroke-width:1.5;"/><line style="stroke:#000000;stroke-width:1.5;" x1="6" x2="314" y1="64.2813" y2="64.2813"/><text fill="#000000" font-family="sans-serif" font-size="14" font-weight="bold" lengthAdjust="spacing" textLength="295" x="10" y="57.3145">br.edu.ifrs.resource_sharing.core.entities</text></g><!--MD5=[b4c11305eaa3e8c36e58e03993803a98]
cluster person--><g id="cluster_person"><path d="M32.5,408.6406 L83.5,408.6406 A3.75,3.75 0 0 1 86,411.1406 L93,430.2813 L169.5,430.2813 A2.5,2.5 0 0 1 172,432.7813 L172,567.1406 A2.5,2.5 0 0 1 169.5,569.6406 L32.5,569.6406 A2.5,2.5 0 0 1 30,567.1406 L30,411.1406 A2.5,2.5 0 0 1 32.5,408.6406 " fill="none" style="stroke:#000000;stroke-width:1.5;"/><line style="stroke:#000000;stroke-width:1.5;" x1="30" x2="93" y1="430.2813" y2="430.2813"/><text fill="#000000" font-family="sans-serif" font-size="14" font-weight="bold" lengthAdjust="spacing" textLength="50" x="34" y="423.3145">person</text></g><!--MD5=[b9b5eb2d76eab67e6cd4b263c053ace2]
cluster software--><g id="cluster_software"><path d="M359.5,247.1406 L421.5,247.1406 A3.75,3.75 0 0 1 424,249.6406 L431,268.7813 L566.5,268.7813 A2.5,2.5 0 0 1 569,271.2813 L569,559.1406 A2.5,2.5 0 0 1 566.5,561.6406 L359.5,561.6406 A2.5,2.5 0 0 1 357,559.1406 L357,249.6406 A2.5,2.5 0 0 1 359.5,247.1406 " fill="none" style="stroke:#000000;stroke-width:1.5;"/><line style="stroke:#000000;stroke-width:1.5;" x1="357" x2="431" y1="268.7813" y2="268.7813"/><text fill="#000000" font-family="sans-serif" font-size="14" font-weight="bold" lengthAdjust="spacing" textLength="61" x="361" y="261.8145">software</text></g><!--MD5=[2c43ae1950626acde57e2af650833bd0]
cluster institution--><g id="cluster_institution"><path d="M308.5,84.6406 L380.5,84.6406 A3.75,3.75 0 0 1 383,87.1406 L390,106.2813 L672.5,106.2813 A2.5,2.5 0 0 1 675,108.7813 L675,211.1406 A2.5,2.5 0 0 1 672.5,213.6406 L308.5,213.6406 A2.5,2.5 0 0 1 306,211.1406 L306,87.1406 A2.5,2.5 0 0 1 308.5,84.6406 " fill="none" style="stroke:#000000;stroke-width:1.5;"/><line style="stroke:#000000;stroke-width:1.5;" x1="306" x2="390" y1="106.2813" y2="106.2813"/><text fill="#000000" font-family="sans-serif" font-size="14" font-weight="bold" lengthAdjust="spacing" textLength="71" x="310" y="99.3145">institution</text></g><!--MD5=[96bc3708265b2f4b2c0bfdb4448555d5]
cluster software.queue--><g id="cluster_software.queue"><path d="M32.5,92.1406 L143.5,92.1406 A3.75,3.75 0 0 1 146,94.6406 L153,113.7813 L279.5,113.7813 A2.5,2.5 0 0 1 282,116.2813 L282,382.1406 A2.5,2.5 0 0 1 279.5,384.6406 L32.5,384.6406 A2.5,2.5 0 0 1 30,382.1406 L30,94.6406 A2.5,2.5 0 0 1 32.5,92.1406 " fill="none" style="stroke:#000000;stroke-width:1.5;"/><line style="stroke:#000000;stroke-width:1.5;" x1="30" x2="153" y1="113.7813" y2="113.7813"/><text fill="#000000" font-family="sans-serif" font-size="14" font-weight="bold" lengthAdjust="spacing" textLength="110" x="34" y="106.8145">software.queue</text></g><!--MD5=[06d2a556d684d59f9c61d2ce90fef023]
class AlunoFilaInstancia--><g id="elem_AlunoFilaInstancia"><rect codeLine="27" fill="#F1F1F1" height="79.2813" id="AlunoFilaInstancia" rx="2.5" ry="2.5" style="stroke:#181818;stroke-width:0.5;" width="147" x="191.5" y="458.6406"/><ellipse cx="206.5" cy="474.6406" fill="#ADD1B2" rx="11" ry="11" style="stroke:#181818;stroke-width:1.0;"/><path d="M208.5,471.1406 Q208.7031,470.6406 208.9375,470.3906 Q209.1719,470.1406 209.4375,470.1406 Q209.9063,470.1406 210.2031,470.4219 Q210.5,470.7031 210.5,471.3594 L210.5,472.9219 Q210.5,473.5781 210.2188,473.8594 Q209.9375,474.1406 209.5,474.1406 Q209.1094,474.1406 208.8594,473.9688 Q208.6094,473.7969 208.5,473.3438 Q208.4531,473.0313 208.2813,472.8594 Q207.9688,472.5313 207.4063,472.3438 Q206.8438,472.1406 206.2813,472.1406 Q205.5781,472.1406 204.9844,472.4219 Q204.4063,472.7031 203.9531,473.3281 Q203.5,473.9531 203.5,474.8125 L203.5,475.7344 Q203.5,476.7656 204.3438,477.4531 Q205.1875,478.1406 206.6875,478.1406 Q207.5781,478.1406 208.2031,477.9375 Q208.5625,477.8281 208.9688,477.4688 Q209.2344,477.2656 209.375,477.2031 Q209.5156,477.1406 209.6875,477.1406 Q210.0156,477.1406 210.25,477.4063 Q210.5,477.6563 210.5,478.0156 Q210.5,478.3594 210.1563,478.7656 Q209.6563,479.3594 208.8594,479.6875 Q207.8125,480.1406 206.5313,480.1406 Q205.0313,480.1406 203.8281,479.5469 Q202.8594,479.0781 202.1719,478.0625 Q201.5,477.0469 201.5,475.8438 L201.5,474.75 Q201.5,473.5 202.0938,472.4063 Q202.7031,471.3125 203.75,470.7344 Q204.8125,470.1406 206,470.1406 Q206.7188,470.1406 207.3438,470.3906 Q207.9688,470.6406 208.5,471.1406 Z " fill="#000000"/><text fill="#000000" font-family="sans-serif" font-size="14" lengthAdjust="spacing" textLength="115" x="220.5" y="479.4941">AlunoFilaInstancia</text><line style="stroke:#181818;stroke-width:0.5;" x1="192.5" x2="337.5" y1="490.6406" y2="490.6406"/><rect fill="none" height="6" style="stroke:#C82930;stroke-width:1.0;" width="6" x="199.5" y="500.9609"/><text fill="#000000" font-family="sans-serif" font-size="14" lengthAdjust="spacing" textLength="98" x="211.5" y="507.3145">iniciouEm: Date</text><rect fill="none" height="6" style="stroke:#C82930;stroke-width:1.0;" width="6" x="199.5" y="516.6016"/><text fill="#000000" font-family="sans-serif" font-size="14" lengthAdjust="spacing" textLength="113" x="211.5" y="522.9551">terminouEm: Date</text><line style="stroke:#181818;stroke-width:0.5;" x1="192.5" x2="337.5" y1="529.9219" y2="529.9219"/></g><g id="elem_GMN4224"><path d="M165,613.6406 L165,681.7344 A0,0 0 0 0 165,681.7344 L365,681.7344 A0,0 0 0 0 365,681.7344 L365,623.6406 L355,613.6406 L269,613.6406 L265,537.8906 L261,613.6406 L165,613.6406 A0,0 0 0 0 165,613.6406 " fill="#FEFFDD" style="stroke:#181818;stroke-width:0.5;"/><path d="M355,613.6406 L355,623.6406 L365,623.6406 L355,613.6406 " fill="#FEFFDD" style="stroke:#181818;stroke-width:0.5;"/><text fill="#000000" font-family="sans-serif" font-size="13" lengthAdjust="spacing" textLength="179" x="171" y="630.4092">Deve ficar em "software.queue"</text><text fill="#000000" font-family="sans-serif" font-size="13" lengthAdjust="spacing" textLength="131" x="171" y="644.9326">porém o modelo ficaria</text><text fill="#000000" font-family="sans-serif" font-size="13" lengthAdjust="spacing" textLength="168" x="171" y="659.4561">confuso com a ferramenta de</text><text fill="#000000" font-family="sans-serif" font-size="13" lengthAdjust="spacing" textLength="71" x="171" y="673.9795">modelagem.</text></g><!--MD5=[2ac4372e56b643e485f07f2f0112fab2]
class Aluno--><g id="elem_Aluno"><rect codeLine="6" fill="#F1F1F1" height="110.5625" id="Aluno" rx="2.5" ry="2.5" style="stroke:#181818;stroke-width:0.5;" width="110" x="46" y="442.6406"/><ellipse cx="79.9" cy="458.6406" fill="#ADD1B2" rx="11" ry="11" style="stroke:#181818;stroke-width:1.0;"/><path d="M81.9,455.1406 Q82.1031,454.6406 82.3375,454.3906 Q82.5719,454.1406 82.8375,454.1406 Q83.3063,454.1406 83.6031,454.4219 Q83.9,454.7031 83.9,455.3594 L83.9,456.9219 Q83.9,457.5781 83.6188,457.8594 Q83.3375,458.1406 82.9,458.1406 Q82.5094,458.1406 82.2594,457.9688 Q82.0094,457.7969 81.9,457.3438 Q81.8531,457.0313 81.6813,456.8594 Q81.3688,456.5313 80.8063,456.3438 Q80.2438,456.1406 79.6813,456.1406 Q78.9781,456.1406 78.3844,456.4219 Q77.8063,456.7031 77.3531,457.3281 Q76.9,457.9531 76.9,458.8125 L76.9,459.7344 Q76.9,460.7656 77.7438,461.4531 Q78.5875,462.1406 80.0875,462.1406 Q80.9781,462.1406 81.6031,461.9375 Q81.9625,461.8281 82.3688,461.4688 Q82.6344,461.2656 82.775,461.2031 Q82.9156,461.1406 83.0875,461.1406 Q83.4156,461.1406 83.65,461.4063 Q83.9,461.6563 83.9,462.0156 Q83.9,462.3594 83.5563,462.7656 Q83.0563,463.3594 82.2594,463.6875 Q81.2125,464.1406 79.9313,464.1406 Q78.4313,464.1406 77.2281,463.5469 Q76.2594,463.0781 75.5719,462.0625 Q74.9,461.0469 74.9,459.8438 L74.9,458.75 Q74.9,457.5 75.4938,456.4063 Q76.1031,455.3125 77.15,454.7344 Q78.2125,454.1406 79.4,454.1406 Q80.1188,454.1406 80.7438,454.3906 Q81.3688,454.6406 81.9,455.1406 Z " fill="#000000"/><text fill="#000000" font-family="sans-serif" font-size="14" lengthAdjust="spacing" textLength="36" x="98.1" y="463.4941">Aluno</text><line style="stroke:#181818;stroke-width:0.5;" x1="47" x2="155" y1="474.6406" y2="474.6406"/><rect fill="none" height="6" style="stroke:#C82930;stroke-width:1.0;" width="6" x="54" y="484.9609"/><text fill="#000000" font-family="sans-serif" font-size="14" lengthAdjust="spacing" textLength="63" x="66" y="491.3145">id: Integer</text><rect fill="none" height="6" style="stroke:#C82930;stroke-width:1.0;" width="6" x="54" y="500.6016"/><text fill="#000000" font-family="sans-serif" font-size="14" lengthAdjust="spacing" textLength="80" x="66" y="506.9551">nome: String</text><rect fill="none" height="6" style="stroke:#C82930;stroke-width:1.0;" width="6" x="54" y="516.2422"/><text fill="#000000" font-family="sans-serif" font-size="14" lengthAdjust="spacing" textLength="78" x="66" y="522.5957">email: String</text><rect fill="none" height="6" style="stroke:#C82930;stroke-width:1.0;" width="6" x="54" y="531.8828"/><text fill="#000000" font-family="sans-serif" font-size="14" lengthAdjust="spacing" textLength="84" x="66" y="538.2363">senha: String</text><line style="stroke:#181818;stroke-width:0.5;" x1="47" x2="155" y1="545.2031" y2="545.2031"/></g><!--MD5=[cb7c223346bfebd549082440377a13ce]
class Programa--><g id="elem_Programa"><rect codeLine="15" fill="#F1F1F1" height="94.9219" id="Programa" rx="2.5" ry="2.5" style="stroke:#181818;stroke-width:0.5;" width="179" x="373.5" y="450.6406"/><ellipse cx="427.75" cy="466.6406" fill="#ADD1B2" rx="11" ry="11" style="stroke:#181818;stroke-width:1.0;"/><path d="M429.75,463.1406 Q429.9531,462.6406 430.1875,462.3906 Q430.4219,462.1406 430.6875,462.1406 Q431.1563,462.1406 431.4531,462.4219 Q431.75,462.7031 431.75,463.3594 L431.75,464.9219 Q431.75,465.5781 431.4688,465.8594 Q431.1875,466.1406 430.75,466.1406 Q430.3594,466.1406 430.1094,465.9688 Q429.8594,465.7969 429.75,465.3438 Q429.7031,465.0313 429.5313,464.8594 Q429.2188,464.5313 428.6563,464.3438 Q428.0938,464.1406 427.5313,464.1406 Q426.8281,464.1406 426.2344,464.4219 Q425.6563,464.7031 425.2031,465.3281 Q424.75,465.9531 424.75,466.8125 L424.75,467.7344 Q424.75,468.7656 425.5938,469.4531 Q426.4375,470.1406 427.9375,470.1406 Q428.8281,470.1406 429.4531,469.9375 Q429.8125,469.8281 430.2188,469.4688 Q430.4844,469.2656 430.625,469.2031 Q430.7656,469.1406 430.9375,469.1406 Q431.2656,469.1406 431.5,469.4063 Q431.75,469.6563 431.75,470.0156 Q431.75,470.3594 431.4063,470.7656 Q430.9063,471.3594 430.1094,471.6875 Q429.0625,472.1406 427.7813,472.1406 Q426.2813,472.1406 425.0781,471.5469 Q424.1094,471.0781 423.4219,470.0625 Q422.75,469.0469 422.75,467.8438 L422.75,466.75 Q422.75,465.5 423.3438,464.4063 Q423.9531,463.3125 425,462.7344 Q426.0625,462.1406 427.25,462.1406 Q427.9688,462.1406 428.5938,462.3906 Q429.2188,462.6406 429.75,463.1406 Z " fill="#000000"/><text fill="#000000" font-family="sans-serif" font-size="14" lengthAdjust="spacing" textLength="62" x="448.25" y="471.4941">Programa</text><line style="stroke:#181818;stroke-width:0.5;" x1="374.5" x2="551.5" y1="482.6406" y2="482.6406"/><rect fill="none" height="6" style="stroke:#C82930;stroke-width:1.0;" width="6" x="381.5" y="492.9609"/><text fill="#000000" font-family="sans-serif" font-size="14" lengthAdjust="spacing" textLength="63" x="393.5" y="499.3145">id: Integer</text><rect fill="none" height="6" style="stroke:#C82930;stroke-width:1.0;" width="6" x="381.5" y="508.6016"/><text fill="#000000" font-family="sans-serif" font-size="14" lengthAdjust="spacing" textLength="80" x="393.5" y="514.9551">nome: String</text><rect fill="none" height="6" style="stroke:#C82930;stroke-width:1.0;" width="6" x="381.5" y="524.2422"/><text fill="#000000" font-family="sans-serif" font-size="14" lengthAdjust="spacing" textLength="153" x="393.5" y="530.5957">memConsumida: Integer</text><line style="stroke:#181818;stroke-width:0.5;" x1="374.5" x2="551.5" y1="537.5625" y2="537.5625"/></g><!--MD5=[ff715005ad2d536f0320cf99dc7fefc0]
class Instancia--><g id="elem_Instancia"><rect codeLine="20" fill="#F1F1F1" height="63.6406" id="Instancia" rx="2.5" ry="2.5" style="stroke:#181818;stroke-width:0.5;" width="89" x="395.5" y="281.1406"/><ellipse cx="410.95" cy="297.1406" fill="#ADD1B2" rx="11" ry="11" style="stroke:#181818;stroke-width:1.0;"/><path d="M412.95,293.6406 Q413.1531,293.1406 413.3875,292.8906 Q413.6219,292.6406 413.8875,292.6406 Q414.3563,292.6406 414.6531,292.9219 Q414.95,293.2031 414.95,293.8594 L414.95,295.4219 Q414.95,296.0781 414.6688,296.3594 Q414.3875,296.6406 413.95,296.6406 Q413.5594,296.6406 413.3094,296.4688 Q413.0594,296.2969 412.95,295.8438 Q412.9031,295.5313 412.7313,295.3594 Q412.4188,295.0313 411.8563,294.8438 Q411.2938,294.6406 410.7313,294.6406 Q410.0281,294.6406 409.4344,294.9219 Q408.8563,295.2031 408.4031,295.8281 Q407.95,296.4531 407.95,297.3125 L407.95,298.2344 Q407.95,299.2656 408.7938,299.9531 Q409.6375,300.6406 411.1375,300.6406 Q412.0281,300.6406 412.6531,300.4375 Q413.0125,300.3281 413.4188,299.9688 Q413.6844,299.7656 413.825,299.7031 Q413.9656,299.6406 414.1375,299.6406 Q414.4656,299.6406 414.7,299.9063 Q414.95,300.1563 414.95,300.5156 Q414.95,300.8594 414.6063,301.2656 Q414.1063,301.8594 413.3094,302.1875 Q412.2625,302.6406 410.9813,302.6406 Q409.4813,302.6406 408.2781,302.0469 Q407.3094,301.5781 406.6219,300.5625 Q405.95,299.5469 405.95,298.3438 L405.95,297.25 Q405.95,296 406.5438,294.9063 Q407.1531,293.8125 408.2,293.2344 Q409.2625,292.6406 410.45,292.6406 Q411.1688,292.6406 411.7938,292.8906 Q412.4188,293.1406 412.95,293.6406 Z " fill="#000000"/><text fill="#000000" font-family="sans-serif" font-size="14" lengthAdjust="spacing" textLength="56" x="425.05" y="301.9941">Instancia</text><line style="stroke:#181818;stroke-width:0.5;" x1="396.5" x2="483.5" y1="313.1406" y2="313.1406"/><rect fill="none" height="6" style="stroke:#C82930;stroke-width:1.0;" width="6" x="403.5" y="323.4609"/><text fill="#000000" font-family="sans-serif" font-size="14" lengthAdjust="spacing" textLength="63" x="415.5" y="329.8145">id: Integer</text><line style="stroke:#181818;stroke-width:0.5;" x1="396.5" x2="483.5" y1="336.7813" y2="336.7813"/></g><!--MD5=[24a2dadc529e071f4d0638cf9927d2c7]
class Instituicao--><g id="elem_Instituicao"><rect codeLine="39" fill="#F1F1F1" height="79.2813" id="Instituicao" rx="2.5" ry="2.5" style="stroke:#181818;stroke-width:0.5;" width="106" x="322" y="118.6406"/><ellipse cx="341.95" cy="134.6406" fill="#ADD1B2" rx="11" ry="11" style="stroke:#181818;stroke-width:1.0;"/><path d="M343.95,131.1406 Q344.1531,130.6406 344.3875,130.3906 Q344.6219,130.1406 344.8875,130.1406 Q345.3563,130.1406 345.6531,130.4219 Q345.95,130.7031 345.95,131.3594 L345.95,132.9219 Q345.95,133.5781 345.6688,133.8594 Q345.3875,134.1406 344.95,134.1406 Q344.5594,134.1406 344.3094,133.9688 Q344.0594,133.7969 343.95,133.3438 Q343.9031,133.0313 343.7313,132.8594 Q343.4188,132.5313 342.8563,132.3438 Q342.2938,132.1406 341.7313,132.1406 Q341.0281,132.1406 340.4344,132.4219 Q339.8563,132.7031 339.4031,133.3281 Q338.95,133.9531 338.95,134.8125 L338.95,135.7344 Q338.95,136.7656 339.7938,137.4531 Q340.6375,138.1406 342.1375,138.1406 Q343.0281,138.1406 343.6531,137.9375 Q344.0125,137.8281 344.4188,137.4688 Q344.6844,137.2656 344.825,137.2031 Q344.9656,137.1406 345.1375,137.1406 Q345.4656,137.1406 345.7,137.4063 Q345.95,137.6563 345.95,138.0156 Q345.95,138.3594 345.6063,138.7656 Q345.1063,139.3594 344.3094,139.6875 Q343.2625,140.1406 341.9813,140.1406 Q340.4813,140.1406 339.2781,139.5469 Q338.3094,139.0781 337.6219,138.0625 Q336.95,137.0469 336.95,135.8438 L336.95,134.75 Q336.95,133.5 337.5438,132.4063 Q338.1531,131.3125 339.2,130.7344 Q340.2625,130.1406 341.45,130.1406 Q342.1688,130.1406 342.7938,130.3906 Q343.4188,130.6406 343.95,131.1406 Z " fill="#000000"/><text fill="#000000" font-family="sans-serif" font-size="14" lengthAdjust="spacing" textLength="63" x="357.05" y="139.4941">Instituicao</text><line style="stroke:#181818;stroke-width:0.5;" x1="323" x2="427" y1="150.6406" y2="150.6406"/><rect fill="none" height="6" style="stroke:#C82930;stroke-width:1.0;" width="6" x="330" y="160.9609"/><text fill="#000000" font-family="sans-serif" font-size="14" lengthAdjust="spacing" textLength="63" x="342" y="167.3145">id: Integer</text><rect fill="none" height="6" style="stroke:#C82930;stroke-width:1.0;" width="6" x="330" y="176.6016"/><text fill="#000000" font-family="sans-serif" font-size="14" lengthAdjust="spacing" textLength="80" x="342" y="182.9551">nome: String</text><line style="stroke:#181818;stroke-width:0.5;" x1="323" x2="427" y1="189.9219" y2="189.9219"/></g><!--MD5=[b58c838ea454f2ae0511ff9923b9ff72]
class Recurso--><g id="elem_Recurso"><rect codeLine="43" fill="#F1F1F1" height="79.2813" id="Recurso" rx="2.5" ry="2.5" style="stroke:#181818;stroke-width:0.5;" width="196" x="463" y="118.6406"/><ellipse cx="530.25" cy="134.6406" fill="#ADD1B2" rx="11" ry="11" style="stroke:#181818;stroke-width:1.0;"/><path d="M532.25,131.1406 Q532.4531,130.6406 532.6875,130.3906 Q532.9219,130.1406 533.1875,130.1406 Q533.6563,130.1406 533.9531,130.4219 Q534.25,130.7031 534.25,131.3594 L534.25,132.9219 Q534.25,133.5781 533.9688,133.8594 Q533.6875,134.1406 533.25,134.1406 Q532.8594,134.1406 532.6094,133.9688 Q532.3594,133.7969 532.25,133.3438 Q532.2031,133.0313 532.0313,132.8594 Q531.7188,132.5313 531.1563,132.3438 Q530.5938,132.1406 530.0313,132.1406 Q529.3281,132.1406 528.7344,132.4219 Q528.1563,132.7031 527.7031,133.3281 Q527.25,133.9531 527.25,134.8125 L527.25,135.7344 Q527.25,136.7656 528.0938,137.4531 Q528.9375,138.1406 530.4375,138.1406 Q531.3281,138.1406 531.9531,137.9375 Q532.3125,137.8281 532.7188,137.4688 Q532.9844,137.2656 533.125,137.2031 Q533.2656,137.1406 533.4375,137.1406 Q533.7656,137.1406 534,137.4063 Q534.25,137.6563 534.25,138.0156 Q534.25,138.3594 533.9063,138.7656 Q533.4063,139.3594 532.6094,139.6875 Q531.5625,140.1406 530.2813,140.1406 Q528.7813,140.1406 527.5781,139.5469 Q526.6094,139.0781 525.9219,138.0625 Q525.25,137.0469 525.25,135.8438 L525.25,134.75 Q525.25,133.5 525.8438,132.4063 Q526.4531,131.3125 527.5,130.7344 Q528.5625,130.1406 529.75,130.1406 Q530.4688,130.1406 531.0938,130.3906 Q531.7188,130.6406 532.25,131.1406 Z " fill="#000000"/><text fill="#000000" font-family="sans-serif" font-size="14" lengthAdjust="spacing" textLength="53" x="550.75" y="139.4941">Recurso</text><line style="stroke:#181818;stroke-width:0.5;" x1="464" x2="658" y1="150.6406" y2="150.6406"/><rect fill="none" height="6" style="stroke:#C82930;stroke-width:1.0;" width="6" x="471" y="160.9609"/><text fill="#000000" font-family="sans-serif" font-size="14" lengthAdjust="spacing" textLength="63" x="483" y="167.3145">id: Integer</text><rect fill="none" height="6" style="stroke:#C82930;stroke-width:1.0;" width="6" x="471" y="176.6016"/><text fill="#000000" font-family="sans-serif" font-size="14" lengthAdjust="spacing" textLength="170" x="483" y="182.9551">capacidadeMb: BigDecimal</text><line style="stroke:#181818;stroke-width:0.5;" x1="464" x2="658" y1="189.9219" y2="189.9219"/></g><!--MD5=[bc67f0094e3cf4722a4e81c85c326ddf]
class AlunoFila--><g id="elem_AlunoFila"><rect codeLine="53" fill="#F1F1F1" height="110.5625" id="AlunoFila" rx="2.5" ry="2.5" style="stroke:#181818;stroke-width:0.5;" width="142" x="85" y="257.6406"/><ellipse cx="122.95" cy="273.6406" fill="#ADD1B2" rx="11" ry="11" style="stroke:#181818;stroke-width:1.0;"/><path d="M124.95,270.1406 Q125.1531,269.6406 125.3875,269.3906 Q125.6219,269.1406 125.8875,269.1406 Q126.3563,269.1406 126.6531,269.4219 Q126.95,269.7031 126.95,270.3594 L126.95,271.9219 Q126.95,272.5781 126.6688,272.8594 Q126.3875,273.1406 125.95,273.1406 Q125.5594,273.1406 125.3094,272.9688 Q125.0594,272.7969 124.95,272.3438 Q124.9031,272.0313 124.7313,271.8594 Q124.4188,271.5313 123.8563,271.3438 Q123.2938,271.1406 122.7313,271.1406 Q122.0281,271.1406 121.4344,271.4219 Q120.8563,271.7031 120.4031,272.3281 Q119.95,272.9531 119.95,273.8125 L119.95,274.7344 Q119.95,275.7656 120.7938,276.4531 Q121.6375,277.1406 123.1375,277.1406 Q124.0281,277.1406 124.6531,276.9375 Q125.0125,276.8281 125.4188,276.4688 Q125.6844,276.2656 125.825,276.2031 Q125.9656,276.1406 126.1375,276.1406 Q126.4656,276.1406 126.7,276.4063 Q126.95,276.6563 126.95,277.0156 Q126.95,277.3594 126.6063,277.7656 Q126.1063,278.3594 125.3094,278.6875 Q124.2625,279.1406 122.9813,279.1406 Q121.4813,279.1406 120.2781,278.5469 Q119.3094,278.0781 118.6219,277.0625 Q117.95,276.0469 117.95,274.8438 L117.95,273.75 Q117.95,272.5 118.5438,271.4063 Q119.1531,270.3125 120.2,269.7344 Q121.2625,269.1406 122.45,269.1406 Q123.1688,269.1406 123.7938,269.3906 Q124.4188,269.6406 124.95,270.1406 Z " fill="#000000"/><text fill="#000000" font-family="sans-serif" font-size="14" lengthAdjust="spacing" textLength="59" x="142.05" y="278.4941">AlunoFila</text><line style="stroke:#181818;stroke-width:0.5;" x1="86" x2="226" y1="289.6406" y2="289.6406"/><rect fill="none" height="6" style="stroke:#C82930;stroke-width:1.0;" width="6" x="93" y="299.9609"/><text fill="#000000" font-family="sans-serif" font-size="14" lengthAdjust="spacing" textLength="63" x="105" y="306.3145">id: Integer</text><rect fill="none" height="6" style="stroke:#C82930;stroke-width:1.0;" width="6" x="93" y="315.6016"/><text fill="#000000" font-family="sans-serif" font-size="14" lengthAdjust="spacing" textLength="116" x="105" y="321.9551">dataEntrada: Date</text><rect fill="none" height="6" style="stroke:#C82930;stroke-width:1.0;" width="6" x="93" y="331.2422"/><text fill="#000000" font-family="sans-serif" font-size="14" lengthAdjust="spacing" textLength="102" x="105" y="337.5957">dataSaida: Date</text><rect fill="none" height="6" style="stroke:#C82930;stroke-width:1.0;" width="6" x="93" y="346.8828"/><text fill="#000000" font-family="sans-serif" font-size="14" lengthAdjust="spacing" textLength="103" x="105" y="353.2363">comando: String</text><line style="stroke:#181818;stroke-width:0.5;" x1="86" x2="226" y1="360.2031" y2="360.2031"/></g><!--MD5=[f410635c2e1e3f8d78eb8aeaf4c2ce80]
class Fila--><g id="elem_Fila"><rect codeLine="59" fill="#F1F1F1" height="63.6406" id="Fila" rx="2.5" ry="2.5" style="stroke:#181818;stroke-width:0.5;" width="89" x="111.5" y="126.1406"/><ellipse cx="141.8" cy="142.1406" fill="#ADD1B2" rx="11" ry="11" style="stroke:#181818;stroke-width:1.0;"/><path d="M143.8,138.6406 Q144.0031,138.1406 144.2375,137.8906 Q144.4719,137.6406 144.7375,137.6406 Q145.2063,137.6406 145.5031,137.9219 Q145.8,138.2031 145.8,138.8594 L145.8,140.4219 Q145.8,141.0781 145.5188,141.3594 Q145.2375,141.6406 144.8,141.6406 Q144.4094,141.6406 144.1594,141.4688 Q143.9094,141.2969 143.8,140.8438 Q143.7531,140.5313 143.5813,140.3594 Q143.2688,140.0313 142.7063,139.8438 Q142.1438,139.6406 141.5813,139.6406 Q140.8781,139.6406 140.2844,139.9219 Q139.7063,140.2031 139.2531,140.8281 Q138.8,141.4531 138.8,142.3125 L138.8,143.2344 Q138.8,144.2656 139.6438,144.9531 Q140.4875,145.6406 141.9875,145.6406 Q142.8781,145.6406 143.5031,145.4375 Q143.8625,145.3281 144.2688,144.9688 Q144.5344,144.7656 144.675,144.7031 Q144.8156,144.6406 144.9875,144.6406 Q145.3156,144.6406 145.55,144.9063 Q145.8,145.1563 145.8,145.5156 Q145.8,145.8594 145.4563,146.2656 Q144.9563,146.8594 144.1594,147.1875 Q143.1125,147.6406 141.8313,147.6406 Q140.3313,147.6406 139.1281,147.0469 Q138.1594,146.5781 137.4719,145.5625 Q136.8,144.5469 136.8,143.3438 L136.8,142.25 Q136.8,141 137.3938,139.9063 Q138.0031,138.8125 139.05,138.2344 Q140.1125,137.6406 141.3,137.6406 Q142.0188,137.6406 142.6438,137.8906 Q143.2688,138.1406 143.8,138.6406 Z " fill="#000000"/><text fill="#000000" font-family="sans-serif" font-size="14" lengthAdjust="spacing" textLength="23" x="159.2" y="146.9941">Fila</text><line style="stroke:#181818;stroke-width:0.5;" x1="112.5" x2="199.5" y1="158.1406" y2="158.1406"/><rect fill="none" height="6" style="stroke:#C82930;stroke-width:1.0;" width="6" x="119.5" y="168.4609"/><text fill="#000000" font-family="sans-serif" font-size="14" lengthAdjust="spacing" textLength="63" x="131.5" y="174.8145">id: Integer</text><line style="stroke:#181818;stroke-width:0.5;" x1="112.5" x2="199.5" y1="181.7813" y2="181.7813"/></g><ellipse cx="48" cy="313.1406" fill="#000000" rx="2" ry="2" style="stroke:none;stroke-width:1.0;"/><ellipse cx="264" cy="313.1406" fill="#000000" rx="2" ry="2" style="stroke:none;stroke-width:1.0;"/><!--MD5=[175e38e7099e33b0b4b431f99aaa4b68]
link Instancia to Programa--><g id="link_Instancia_Programa"><path codeLine="24" d="M443.9,345.1806 C447.06,370.3206 451.61,406.4806 455.47,437.2206 " fill="none" id="Instancia-to-Programa" style="stroke:#181818;stroke-width:1.0;"/><polygon fill="#181818" points="457.13,450.4606,460.347,444.0069,455.627,438.5551,452.41,445.0089,457.13,450.4606" style="stroke:#181818;stroke-width:1.0;"/></g><!--MD5=[db6c50d3cd4b669c6e02023fd32289a9]
link Recurso to Instancia--><g id="link_Recurso_Instancia"><path codeLine="48" d="M530.47,197.7506 C512.94,219.9106 490.92,247.7506 473,270.4106 " fill="none" id="Recurso-to-Instancia" style="stroke:#181818;stroke-width:1.0;"/><polygon fill="none" points="464.82,280.7506,471.6799,278.5277,472.2664,271.3405,465.4065,273.5634,464.82,280.7506" style="stroke:#181818;stroke-width:1.0;"/></g><!--MD5=[ccd06e0c597ddf9b83e6d1b3deaa7abd]
link Instituicao to Recurso--><g id="link_Instituicao_Recurso"><path codeLine="49" d="M428.04,158.1406 C435.29,158.1406 442.54,158.1406 449.79,158.1406 " fill="none" id="Instituicao-to-Recurso" style="stroke:#181818;stroke-width:1.0;"/><polygon fill="none" points="462.84,158.1406,456.84,154.1406,450.84,158.1406,456.84,162.1406,462.84,158.1406" style="stroke:#181818;stroke-width:1.0;"/></g><!--MD5=[624d52d3973acfbf1461582c223c49a4]
link Fila to apoint4236--><g id="link_Fila_apoint4236"><path d="M111.47,190.3506 C95.35,203.7006 78.34,220.5006 67,239.1406 C51.21,265.1006 48.43,303.9606 48.05,311.0206 " fill="none" id="Fila-apoint4236" style="stroke:#181818;stroke-width:1.0;"/><text fill="#000000" font-family="sans-serif" font-size="13" lengthAdjust="spacing" textLength="7" x="96.515" y="192.3677">n</text></g><!--MD5=[1ee87ac947641ba918a382aaabc664e6]
link apoint4236 to Aluno--><g id="link_apoint4236_Aluno"><path d="M48.24,315.2606 C49.73,322.3006 58.13,361.3406 67,392.6406 C71.63,408.9806 77.15,426.5906 82.38,442.6106 " fill="none" id="apoint4236-Aluno" style="stroke:#181818;stroke-width:1.0;"/><text fill="#000000" font-family="sans-serif" font-size="13" lengthAdjust="spacing" textLength="7" x="72.4076" y="432.0413">n</text></g><!--MD5=[a90d2cb4bcaae3f86805f69a92b842b6]
link apoint4236 to AlunoFila--><g id="link_apoint4236_AlunoFila"><path d="M50.11,313.1406 C61.69,313.1406 73.27,313.1406 84.85,313.1406 " fill="none" id="apoint4236-AlunoFila" style="stroke:#181818;stroke-width:1.0;stroke-dasharray:7.0,7.0;"/></g><!--MD5=[861ff248a04b56808c13877d5a3ad233]
link Fila to Instancia--><g id="link_Fila_Instancia"><path codeLine="66" d="M200.69,183.2106 C253.8,211.8306 341.9,259.2906 395.1,287.9506 " fill="none" id="Fila-Instancia" style="stroke:#181818;stroke-width:1.0;"/></g><!--MD5=[0fb5fff9526b553cceeb791afaddf870]
link AlunoFila to apoint4243--><g id="link_AlunoFila_apoint4243"><path d="M227.3,313.1406 C238.86,313.1406 250.43,313.1406 261.99,313.1406 " fill="none" id="AlunoFila-apoint4243" style="stroke:#181818;stroke-width:1.0;"/></g><!--MD5=[12ad669caf9f6cd7505179bab2f0f3e6]
link apoint4243 to Instancia--><g id="link_apoint4243_Instancia"><path d="M266.06,313.1406 C309.21,313.1406 352.35,313.1406 395.5,313.1406 " fill="none" id="apoint4243-Instancia" style="stroke:#181818;stroke-width:1.0;"/></g><!--MD5=[73d32ccf5a7919e542489989f24eb238]
link apoint4243 to AlunoFilaInstancia--><g id="link_apoint4243_AlunoFilaInstancia"><path d="M264.01,315.3106 C264.07,326.0506 264.52,408.4206 264.79,458.5306 " fill="none" id="apoint4243-AlunoFilaInstancia" style="stroke:#181818;stroke-width:1.0;stroke-dasharray:7.0,7.0;"/></g><!--MD5=[9f6f73496d273340c1a3edf84f64a6a9]
@startuml "core_domain"

title "Core domain for application"

package "br.edu.ifrs.resource_sharing.core.entities" {
    package "person" {
        class Aluno {
            - id: Integer
            - nome: String
            - email: String
            - senha: String
        }
    }

    package "software" {
        class Programa {
            - id: Integer
            - nome: String
            - memConsumida: Integer
        }
        class Instancia {
            - id: Integer
        }

        Instancia - -* Programa
    }

    class AlunoFilaInstancia {
        - iniciouEm: Date
        - terminouEm: Date
    }
    note bottom
      Deve ficar em "software.queue"
      porém o modelo ficaria
      confuso com a ferramenta de
      modelagem.
    end note

    package "institution" {
        class Instituicao {
            - id: Integer
            - nome: String
        }
        class Recurso {
            - id: Integer
            - capacidadeMb: BigDecimal
        }

        Recurso - -o Instancia
        Instituicao -o Recurso
    }

    package "software.queue" {
        class AlunoFila {
            - id: Integer
            - dataEntrada: Date
            - dataSaida: Date
            - comando: String
        }
        class Fila {
            - id: Integer
        }

        Fila "n" - - "n" Aluno
        (Aluno, Fila) . AlunoFila

        Fila - Instancia
        AlunoFila -right- Instancia
        (AlunoFila, Instancia) .. AlunoFilaInstancia
    }
}

@enduml

PlantUML version 1.2022.7(Mon Aug 22 14:01:30 BRT 2022)
(GPL source distribution)
Java Runtime: OpenJDK Runtime Environment
JVM: OpenJDK 64-Bit Server VM
Default Encoding: Cp1252
Language: en
Country: US
--></g></svg>